# xmcd
#
# Track frame offsets:
# 150
# 27722
# 58312
# 77034
# 116457
# 148367
# 176247
# 190202
#
# Disc length: 2864 seconds
#
#
# Revision: 0
# Processed by: cddbd v1.5.2PL0 Copyright (c) Steve Scherf et al.
# Submitted via: FreeRIP 2.90 
#
DISCID=7b0b2e08
DTITLE=Eliah Levy - Return To Innocence
DYEAR=1900
DGENRE=Blues
TTITLE0=Sunflower
TTITLE1=Morning Light
TTITLE2=Take Me Back To Brazil
TTITLE3=Full Circle
TTITLE4=I'll Always Be A Part Of You
TTITLE5=Wooten's Mooten
TTITLE6=Morning On
TTITLE7=Return To Innocence
EXTD=
EXTT0=
EXTT1=
EXTT2=
EXTT3=
EXTT4=
EXTT5=
EXTT6=
EXTT7=
PLAYORDER=
